<?xml version="1.0" encoding="utf-8"?>
<!-- Generator: Adobe Illustrator 22.1.0, SVG Export Plug-In . SVG Version: 6.00 Build 0)  -->
<svg version="1.1" id="Layer_1" xmlns="http://www.w3.org/2000/svg" xmlns:xlink="http://www.w3.org/1999/xlink" x="0px" y="0px"
	 viewBox="0 0 156 24.9" style="enable-background:new 0 0 156 24.9;" xml:space="preserve">
<style type="text/css">
	.st0{fill:#FFFFFF;}
	.st1{fill:#FCEC0A;}
</style>
<g>
	<path class="st0" d="M153.6,3.6c0.1-0.1,0.1-0.2,0.2-0.3c0-0.1,0.1-0.2,0.1-0.3c0-0.2,0-0.3-0.1-0.4c0-0.1-0.1-0.3-0.2-0.4
		c-0.1-0.1-0.2-0.2-0.4-0.3c-0.2-0.1-0.4-0.1-0.6-0.1h-1.7v4h0.6V4.1h0.9l0.8,1.6h0.7L153,4.1c0.2,0,0.3-0.1,0.4-0.2
		C153.5,3.8,153.6,3.7,153.6,3.6z M153.2,3.2c0,0.1-0.1,0.1-0.1,0.2c-0.1,0.1-0.1,0.1-0.2,0.1c-0.1,0-0.2,0.1-0.3,0.1h-1.1V2.4h1.1
		c0.1,0,0.2,0,0.3,0.1c0.1,0,0.2,0.1,0.2,0.1c0.1,0.1,0.1,0.1,0.1,0.2c0,0.1,0,0.1,0,0.2C153.2,3,153.2,3.1,153.2,3.2z"/>
	<path class="st0" d="M152.3,0c-2.1,0-3.8,1.7-3.8,3.8s1.7,3.8,3.8,3.8c2.1,0,3.8-1.7,3.8-3.8S154.3,0,152.3,0z M152.3,7.1
		c-1.8,0-3.3-1.5-3.3-3.3s1.5-3.3,3.3-3.3c1.8,0,3.3,1.5,3.3,3.3S154.1,7.1,152.3,7.1z"/>
</g>
<g>
	<path class="st1" d="M10.5,22.8l2.7-7.7l2.7,7.7h5.2l1.1-3.5c1.4,3.2,4.6,5.4,8.3,5.4c3.7,0,6.9-2.2,8.3-5.4l1.1,3.5h5.2l2.7-7.7
		l2.7,7.7h5.2l5.2-16.3h-5.7l-2.3,8l-2.7-8h-4.8l-2.7,8l-2.3-8h-5.6c2,1.1,3.6,3.3,4.1,5.7c-1.4-3.3-4.7-5.6-8.4-5.6
		c-3.8,0-7,2.3-8.4,5.6c0.5-2.4,2.1-4.6,4.1-5.7h-5.6l-2.3,8l-2.7-8h-4.8l-2.7,8l-2.3-8H0l5.2,16.3H10.5z M30.5,12
		c2,0,3.7,1.6,3.7,3.7c0,2-1.6,3.7-3.7,3.7c-2,0-3.7-1.6-3.7-3.7C26.9,13.7,28.5,12,30.5,12"/>
	<path class="st0" d="M142.6,11.6h4.9v-5h-6.6c-1.4,0-2.6,0.5-3.5,1.5c-0.8,0.8-1.3,1.7-1.4,2.8h-0.1c-0.1-0.4-0.2-0.7-0.4-1
		c-0.4-0.7-0.9-1.3-1.5-1.8c-0.6-0.5-1.4-0.8-2.3-1.1c-0.9-0.2-1.9-0.4-3-0.4h-8v12.1h-7.7v-1.9h5.6v-4.2h-5.6v-1.9h5.6V6.6h-15.8
		l-4.4,6.4V6.6h-5.8v11.1L88,6.6h-5.5L79.8,13l-2.1-6.4h-4.8L70,14.8l-2.9-8.2h-4.8L57,22.8h5.7l2.2-7.4l2.5,7.4h5.2l2.5-7.4
		l2.2,7.4h4.4l0.9-2.4h5.7l1,2.4h6.8l3.7-4.7l2.8,4.7h24.4v-4.4h0.9l2.9,2.9c0.1,0.1,0.1,0.1,0.2,0.2v0l1.3,1.3h10.2
		c1.4,0,2.6-0.5,3.5-1.5c1-1,1.5-2.2,1.5-3.5c0-1.9-1-3.5-3-4.6l-2-1.1c-0.1-0.1-0.1-0.2-0.1-0.2C142.3,11.7,142.4,11.6,142.6,11.6
		 M83.7,17.3l1.5-4l1.5,4H83.7z M107.1,19.6l-3.5-5.6l3.5-4.4V19.6z M130.7,12.8c0,0.6-0.2,1-0.6,1.3c-0.4,0.3-1,0.5-1.7,0.5h-1.5
		v-3.6h1.5c0.7,0,1.3,0.1,1.7,0.5C130.5,11.7,130.7,12.1,130.7,12.8L130.7,12.8z M140.8,17.9h-5.8c0,0,0,0,0,0h-0.6l-0.1,0l-0.4-0.4
		c0,0,0,0,0,0l-0.3-0.3c0.1-0.1,0.3-0.2,0.4-0.3c0.7-0.5,1.2-1.1,1.5-1.9c0.3-0.6,0.4-1.2,0.5-1.8h0.1c0.4,1.2,1.3,2.2,2.8,3.1
		l2,1.1c0.1,0.1,0.1,0.2,0.1,0.3C141,17.7,140.9,17.8,140.8,17.9"/>
</g>
</svg>
